<svg width="167" height="40" viewBox="0 0 167 40" xmlns="http://www.w3.org/2000/svg"><title>logo</title><defs><linearGradient x1="-60.957%" y1="252.318%" x2="51.957%" y2="46.389%" id="a"><stop stop-color="#9DD1E9" offset="0%"/><stop stop-color="#3BB3E3" offset="100%"/></linearGradient><linearGradient x1="950.87%" y1="9663%" x2="4252.201%" y2="2677%" id="b"><stop stop-color="#9DD1E9" offset="0%"/><stop stop-color="#3BB3E3" offset="100%"/></linearGradient><linearGradient x1="1674.374%" y1="10468%" x2="4773.129%" y2="3482%" id="c"><stop stop-color="#9DD1E9" offset="0%"/><stop stop-color="#3BB3E3" offset="100%"/></linearGradient><linearGradient x1="-1054%" y1="4792.397%" x2="3677%" y2="646.435%" id="d"><stop stop-color="#9DD1E9" offset="0%"/><stop stop-color="#3BB3E3" offset="100%"/></linearGradient><linearGradient x1="1192%" y1="4845.689%" x2="5923%" y2="1323.54%" id="e"><stop stop-color="#9DD1E9" offset="0%"/><stop stop-color="#3BB3E3" offset="100%"/></linearGradient><linearGradient x1="3185%" y1="5380.671%" x2="7916%" y2="1951.708%" id="f"><stop stop-color="#9DD1E9" offset="0%"/><stop stop-color="#3BB3E3" offset="100%"/></linearGradient><linearGradient x1="3324.131%" y1="11962%" x2="6629.703%" y2="4976%" id="g"><stop stop-color="#9DD1E9" offset="0%"/><stop stop-color="#3BB3E3" offset="100%"/></linearGradient></defs><g fill="none" fill-rule="evenodd"><path d="M56.87 28.416H51.8l-5.71-9.13 7.636-8.094h4.88l-7.702 8.012 5.967 9.212zm-12.19 0l2.457-17.228h-4.144L40.52 28.416h4.16zm25.245-5.39l.447-3.133c.243-1.716-.076-2.91-.957-3.584-.88-.68-2.318-1.01-4.31-1.01-2.116 0-3.758.35-4.927 1.06-1.17.7-1.87 1.88-2.105 3.53l-.66 4.61c-.397 2.78 1.69 4.17 6.262 4.17 1.727 0 3.45-.17 5.143-.51l.352-2.48c-1.44.35-2.917.54-4.4.57-1.423 0-2.37-.17-2.84-.49-.484-.37-.7-.99-.546-1.58l.166-1.17 8.375-.01zm-3.394-2.2h-4.66l.27-1.86c.05-.397.29-.746.63-.945.62-.27 1.29-.38 1.96-.33.85 0 1.43.11 1.73.33.3.22.44.59.36.95l-.26 1.86h-.01zm18.45-5.26L75.3 33.94h-3.95l3.15-5.63-3.315-12.74h4.24l1.61 9.07 3.938-9.07h4.01zm18.73 12.85l1.34-9.422c.18-1.24 0-2.165-.55-2.775-.54-.62-1.65-.92-3.31-.92-1.01-.02-2.01.12-2.98.41-.73.17-1.35.66-1.69 1.33-.36-1.17-1.62-1.75-3.78-1.75-2.65 0-4.18.61-4.6 1.83l.23-1.57h-2.4l-1.82 12.86h2.4l1.33-9.27c.12-.83.44-1.39.95-1.69.52-.3 1.48-.45 2.9-.44.5-.02 1 .04 1.47.17.31.07.58.25.77.5.13.19.21.42.24.65.02.26.01.53-.03.79l-1.34 9.28h2.4l1.33-9.27c.12-.82.39-1.38.83-1.67.44-.29 1.36-.44 2.78-.45.5-.01 1 .05 1.48.17.31.07.59.25.78.51.13.2.21.42.24.65.02.26.01.53-.03.8l-1.32 9.26h2.4zm14.3-5.892h-8.66l-.27 1.938c-.12.902.11 1.543.69 1.926.59.382 1.51.57 2.77.57 1.5-.038 2.99-.25 4.44-.636l-.26 1.83c-1.56.345-3.15.523-4.74.533-3.95 0-5.73-1.31-5.36-3.93l.74-5.073c.23-1.575.84-2.698 1.84-3.37 1-.67 2.5-1.006 4.49-1.01 1.87 0 3.19.324 3.96.97.77.646 1.04 1.783.81 3.41l-.41 2.842h-.01zm-2.17-1.567l.29-2.017c.11-.778-.05-1.313-.49-1.604-.43-.29-1.21-.434-2.33-.43-.83-.046-1.66.095-2.43.414-.59.335-.97.945-1 1.62l-.28 2.017h6.26zm11.78 7.497c-.9.144-1.81.216-2.72.214-1.62 0-2.71-.275-3.27-.825-.56-.55-.73-1.607-.51-3.17l1.08-7.54h-2.9l.23-1.566h2.9l.57-3.983h2.43l-.57 3.983h4.62l-.22 1.567h-4.61l-1.09 7.67c-.13.92-.04 1.536.27 1.843.31.308 1.01.464 2.09.466.66-.038 1.31-.11 1.95-.214l-.22 1.56.01-.01zm9.85-11.134l.29-2.062h-1.17c-.87.02-1.71.268-2.46.717-.83.48-1.29 1.028-1.39 1.65l.3-2.1h-2.27l-1.83 12.85h2.4l1.3-8.994c.04-.66.43-1.27 1.02-1.59.79-.32 1.64-.46 2.49-.41l1.35-.05zm4.05-3.93h-2.4l.36-2.495h2.4l-.35 2.495zm-2.14 14.998h-2.4l1.83-12.85h2.4l-1.83 12.85zm12.2-.108c-1.38.264-2.78.388-4.19.372-.78 0-1.38-.014-1.82-.042-.49-.037-.98-.125-1.45-.264-.45-.1-.86-.327-1.18-.65-.29-.36-.49-.785-.58-1.238-.14-.66-.15-1.34-.03-2.004l.68-4.69c.08-.625.24-1.24.46-1.83.18-.464.45-.885.81-1.237.3-.295.63-.554.99-.77.41-.22.85-.36 1.3-.414.54-.08 1.01-.133 1.41-.16.41-.028.95-.042 1.62-.042 1.22.01 2.44.15 3.63.42l-.25 1.75c-1.27-.36-2.59-.55-3.91-.57-1.33 0-2.22.16-2.66.48-.44.32-.74 1-.89 2.04l-.75 5.26c-.13.94.01 1.56.42 1.87.41.31 1.32.47 2.727.47 1.333-.01 2.67-.17 3.96-.5l-.26 1.81.005-.03zm11.93-4.362c.28-2.018-.94-3.027-3.65-3.027h-1.49c-1.58 0-2.31-.43-2.19-1.3l.15-1.09c.06-.53.38-1 .86-1.23.49-.25 1.37-.37 2.66-.37 1.34.02 2.66.14 3.98.37l.24-1.72c-2.17-.14-3.46-.21-3.89-.21-3.84 0-5.91 1.01-6.19 3.03l-.17 1.2c-.18.84.09 1.71.72 2.3.61.55 1.6.83 2.95.83h1.47c.61-.05 1.22.07 1.768.35.36.28.515.74.396 1.17l-.182 1.3c-.044.58-.43 1.08-.983 1.26-.79.24-1.62.34-2.445.31-1.48-.06-2.95-.23-4.41-.5l-.26 1.83c1.46.21 2.92.31 4.39.32 1.82 0 3.25-.27 4.29-.8 1.05-.53 1.67-1.49 1.87-2.88l.16-1.1z" fill="#FFF"/><path d="M11.702 14.066L26.14 2.98c.42-.308.638-.818.572-1.333-.066-.516-.406-.955-.89-1.15-.485-.194-1.036-.113-1.443.212L9.94 11.79c-.42.31-.638.82-.572 1.335.067.514.408.954.89 1.148.486.194 1.038.113 1.445-.212H11.7z" fill="url(#a)" fill-rule="nonzero"/><path d="M24.743 8.66c.488.625 1.39.74 2.023.26l7.417-5.69c.612-.49.72-1.378.24-1.996-.48-.62-1.37-.742-2-.277l-7.42 5.695c-.624.485-.74 1.38-.26 2.008z" fill="url(#b)" fill-rule="nonzero"/><path d="M25.978 37.113L11.54 26.037c-.406-.325-.958-.406-1.442-.212-.484.194-.825.634-.89 1.15-.067.515.152 1.025.572 1.334l14.437 11.08c.633.48 1.54.36 2.026-.27.487-.63.368-1.54-.265-2.02z" fill="url(#c)" fill-rule="nonzero"/><path d="M6.89 17.732c.63-.48.753-1.378.275-2.008-.484-.627-1.385-.748-2.018-.272l-4.12 3.105c-.123.06-.235.145-.327.247l-.273.206c-.295.23-.452.594-.415.965-.037.37.12.735.415.965l.273.206c.092.103.204.187.328.248l4.12 3.117c.408.33.96.41 1.445.21.484-.2.823-.64.885-1.16.06-.51-.163-1.02-.587-1.33l-2.61-1.98c-.08-.06-.14-.16-.14-.27 0-.1.06-.21.14-.27l2.62-1.97z" fill="url(#d)" fill-rule="nonzero"/><path d="M20.413 29.798c.41.324.963.403 1.447.205.484-.198.822-.64.884-1.158.062-.517-.163-1.026-.586-1.332l-9.594-7.266c-.087-.065-.138-.167-.138-.276 0-.1.05-.21.138-.27l9.627-7.29c.62-.48.73-1.37.25-1.99-.47-.62-1.36-.75-1.99-.29L9.32 18.56c-.126.06-.237.145-.33.247l-.273.206c-.295.23-.452.595-.415.966-.037.37.12.73.415.96l.273.2c.09.1.2.18.325.25l11.098 8.4z" fill="url(#e)" fill-rule="nonzero"/><path d="M34.98 29.942l-12.802-9.695c-.087-.065-.138-.167-.138-.276 0-.1.05-.21.138-.27l12.846-9.74c.63-.48.752-1.38.274-2.01-.484-.62-1.384-.74-2.018-.27L18.93 18.56c-.125.06-.236.144-.328.246l-.273.206c-.3.23-.46.594-.42.965-.04.37.12.735.41.965l.27.204c.09.103.2.187.32.248l14.31 10.832c.63.457 1.52.326 1.99-.294s.36-1.505-.25-1.99z" fill="url(#f)" fill-rule="nonzero"/><path d="M33.98 37.113l-7.413-5.71c-.632-.466-1.52-.343-2 .276-.48.61-.374 1.5.24 1.99l7.416 5.69c.398.38.98.5 1.497.31.518-.19.882-.66.937-1.2.055-.55-.207-1.08-.677-1.37z" fill="url(#g)" fill-rule="nonzero"/><path d="M165.682 26.986c.442.002.82.314.906.746.085.432-.148.863-.557 1.03-.4.17-.88.027-1.12-.34-.24-.365-.2-.852.12-1.164.18-.18.42-.278.67-.272zm0 1.732c.214.003.42-.082.568-.236.305-.318.305-.82 0-1.138-.15-.15-.354-.237-.568-.237-.213 0-.418.086-.567.237-.23.23-.3.575-.177.875.124.3.418.49.744.49zm.224-.776c.082.013.147.076.162.157l.124.34h-.174l-.116-.34c-.027-.07-.098-.12-.174-.11h-.294v.45h-.166v-1.08h.456c.114-.01.23.01.33.06.075.06.112.15.1.24.005.07-.015.13-.057.19-.054.04-.12.07-.19.07zm-.472-.057h.286c.073.003.146-.012.21-.046.043-.04.063-.1.055-.15.01-.06-.01-.12-.054-.16-.06-.03-.13-.05-.21-.04h-.28v.39z" fill="#FFF" fill-rule="nonzero"/></g></svg>